{
  "accessors": [
    {
      "bufferView": 2,
      "componentType": 5125,
      "count": 1794,
      "max": [
        398
      ],
      "min": [
        0
      ],
      "type": "SCALAR"
    },
    {
      "bufferView": 0,
      "componentType": 5126,
      "count": 399,
      "max": [
        0.6602109670639038,
        0.6764849424362183,
        -0.01624165289103985
      ],
      "min": [
        -0.9581422805786133,
        -0.532976508140564,
        -1.6450111865997314
      ],
      "type": "VEC3"
    },
    {
      "bufferView": 0,
      "byteOffset": 12,
      "componentType": 5126,
      "count": 399,
      "max": [
        0.9971432685852051,
        0.9937570095062256,
        0.9994117617607117
      ],
      "min": [
        -0.9989351630210876,
        -0.9788181781768799,
        -0.9881203770637512
      ],
      "type": "VEC3"
    },
    {
      "bufferView": 0,
      "byteOffset": 24,
      "componentType": 5126,
      "count": 399,
      "max": [
        0.9998183846473694,
        0.9998183250427246
      ],
      "min": [
        0.0001816988515201956,
        0.16110879182815552
      ],
      "type": "VEC2"
    },
    {
      "bufferView": 0,
      "byteOffset": 32,
      "componentType": 5126,
      "count": 399,
      "max": [
        0.9946019649505615,
        0.9997381567955017,
        0.9637767672538757,
        -1.0
      ],
      "min": [
        -0.996885359287262,
        -0.9996276497840881,
        -0.9955529570579529,
        -1.0
      ],
      "type": "VEC4"
    },
    {
      "bufferView": 0,
      "byteOffset": 48,
      "componentType": 5126,
      "count": 399,
      "max": [
        0.9971433877944946,
        0.9937570691108704,
        0.9992396831512451
      ],
      "min": [
        -0.9989352226257324,
        -0.9788182973861694,
        -0.9881203174591064
      ],
      "type": "VEC3"
    },
    {
      "bufferView": 0,
      "byteOffset": 60,
      "componentType": 5126,
      "count": 399,
      "max": [
        7.809525413904339e-05,
        1.0000040531158447
      ],
      "min": [
        -0.057550206780433655,
        0.006933027878403664
      ],
      "type": "VEC2"
    },
    {
      "bufferView": 1,
      "componentType": 5121,
      "count": 598,
      "max": [
        6
      ],
      "min": [
        0
      ],
      "type": "SCALAR"
    }
  ],
  "asset": {
    "version": "2.0"
  },
  "bufferViews": [
    {
      "buffer": 0,
      "byteLength": 27132,
      "byteStride": 68,
      "target": 34962
    },
    {
      "buffer": 0,
      "byteLength": 598,
      "byteOffset": 27132,
      "target": 34962
    },
    {
      "buffer": 0,
      "byteLength": 7176,
      "byteOffset": 27730,
      "target": 34963
    }
  ],
  "buffers": [
    {
      "byteLength": 34906,
      "uri": "bunny_baked.bin"
    }
  ],
  "extensions": {
    "NV_micromaps": {
      "micromaps": [
        {
          "uri": "bunny.bary"
        }
      ]
    }
  },
  "extensionsUsed": [
    "NV_displacement_micromap",
    "NV_micromaps"
  ],
  "images": [
    {
      "name": "_resampled_new_0",
      "uri": "_resampled_new_0.png"
    }
  ],
  "materials": [
    {
      "doubleSided": true,
      "name": "Material.003",
      "normalTexture": {
        "index": 0
      },
      "pbrMetallicRoughness": {
        "baseColorFactor": [
          0.800000011920929,
          0.800000011920929,
          0.800000011920929,
          1.0
        ],
        "metallicFactor": 0.0,
        "roughnessFactor": 0.5
      }
    }
  ],
  "meshes": [
    {
      "name": "bunny.001",
      "primitives": [
        {
          "attributes": {
            "NORMAL": 2,
            "POSITION": 1,
            "TANGENT": 4,
            "TEXCOORD_0": 3
          },
          "extensions": {
            "NV_displacement_micromap": {
              "directionBounds": 6,
              "directions": 5,
              "micromap": 0,
              "primitiveFlags": 7
            }
          },
          "indices": 0,
          "material": 0,
          "mode": 4
        }
      ]
    }
  ],
  "nodes": [
    {
      "mesh": 0,
      "name": "bunny.001",
      "rotation": [
        0.7071068286895752,
        0.0,
        0.0,
        0.7071067094802856
      ],
      "scale": [
        2.0,
        1.9999998807907104,
        1.9999998807907104
      ],
      "translation": [
        0.32801908254623413,
        0.0,
        0.0
      ]
    }
  ],
  "samplers": [
    {
      "magFilter": 9729,
      "minFilter": 9987,
      "wrapS": 10497,
      "wrapT": 10497
    }
  ],
  "scenes": [
    {
      "name": "Scene",
      "nodes": [
        0
      ]
    }
  ],
  "textures": [
    {
      "sampler": 0,
      "source": 0
    }
  ]
}
